<svg xmlns="http://www.w3.org/2000/svg" xmlns:xlink="http://www.w3.org/1999/xlink" width="1000" zoomAndPan="magnify" viewBox="0 0 750 749.999995" height="1000" preserveAspectRatio="xMidYMid meet" version="1.0"><defs><clipPath id="39a336cc0c"><path d="M 375 0 C 167.894531 0 0 167.894531 0 375 C 0 582.105469 167.894531 750 375 750 C 582.105469 750 750 582.105469 750 375 C 750 167.894531 582.105469 0 375 0 " clip-rule="nonzero"/></clipPath><clipPath id="079ad185c9"><path d="M 125.179688 131.65625 L 589 131.65625 L 589 666.40625 L 125.179688 666.40625 Z M 125.179688 131.65625 " clip-rule="nonzero"/></clipPath><clipPath id="df7d83d7da"><path d="M 294 131.65625 L 624.679688 131.65625 L 624.679688 426 L 294 426 Z M 294 131.65625 " clip-rule="nonzero"/></clipPath></defs><g clip-path="url(#39a336cc0c)"><rect x="-75" width="900" fill="#2563eb" y="-74.999999" height="899.999994" fill-opacity="1"/></g><g clip-path="url(#079ad185c9)"><path fill="#ffffff" d="M 328.679688 149.480469 L 346.125 149.480469 L 342.433594 167.308594 L 324.988281 167.308594 Z M 385.515625 149.480469 L 389.207031 167.308594 L 371.757812 167.308594 L 368.066406 149.480469 Z M 490.832031 470.332031 L 490.832031 488.15625 L 223.363281 488.15625 L 223.363281 470.332031 Z M 488.8125 648.582031 L 471.363281 648.582031 L 441.867188 505.980469 L 459.3125 505.980469 Z M 272.121094 595.105469 L 275.8125 577.28125 L 438.382812 577.28125 L 442.074219 595.105469 Z M 330.351562 559.457031 L 279.46875 559.457031 L 290.542969 505.980469 L 330.351562 505.980469 Z M 366.011719 559.457031 L 348.179688 559.457031 L 348.179688 505.980469 L 366.011719 505.980469 Z M 423.652344 505.980469 L 434.726562 559.457031 L 383.84375 559.457031 L 383.84375 505.980469 Z M 242.832031 648.582031 L 225.382812 648.582031 L 254.878906 505.980469 L 272.328125 505.980469 Z M 508.664062 167.308594 L 407.421875 167.308594 L 401.5 138.757812 C 400.628906 134.617188 396.972656 131.65625 392.757812 131.65625 L 321.433594 131.65625 C 317.21875 131.65625 313.5625 134.617188 312.691406 138.757812 L 306.773438 167.308594 L 134.207031 167.308594 C 129.296875 167.308594 125.289062 171.3125 125.289062 176.21875 L 125.289062 461.417969 C 125.289062 466.328125 129.296875 470.332031 134.207031 470.332031 L 205.53125 470.332031 L 205.53125 497.070312 C 205.53125 501.976562 209.535156 505.980469 214.445312 505.980469 L 236.667969 505.980469 L 205.707031 655.683594 C 205.183594 658.328125 205.84375 661.046875 207.515625 663.132812 C 209.222656 665.1875 211.765625 666.40625 214.445312 666.40625 L 250.109375 666.40625 C 254.324219 666.40625 257.980469 663.449219 258.851562 659.304688 L 268.429688 612.933594 L 445.765625 612.933594 L 455.34375 659.304688 C 456.214844 663.449219 459.871094 666.40625 464.085938 666.40625 L 499.746094 666.40625 C 502.429688 666.40625 504.972656 665.1875 506.679688 663.132812 C 508.351562 661.046875 509.011719 658.328125 508.488281 655.683594 L 477.527344 505.980469 L 499.746094 505.980469 C 504.65625 505.980469 508.664062 501.976562 508.664062 497.070312 L 508.664062 470.332031 L 579.988281 470.332031 C 584.898438 470.332031 588.902344 466.328125 588.902344 461.417969 L 588.902344 238.605469 L 571.074219 238.605469 L 571.074219 452.507812 L 143.121094 452.507812 L 143.121094 185.132812 L 508.664062 185.132812 L 508.664062 167.308594 " fill-opacity="1" fill-rule="nonzero"/></g><g clip-path="url(#df7d83d7da)"><path fill="#ffffff" d="M 605.761719 156.339844 L 544.742188 229.519531 C 523.640625 254.867188 500.964844 278.78125 476.972656 301.273438 L 454.890625 279.164062 C 477.390625 255.214844 501.316406 232.550781 526.667969 211.453125 L 599.910156 150.421875 C 602.382812 148.367188 606.734375 150.386719 606.734375 153.660156 C 606.734375 154.632812 606.386719 155.574219 605.761719 156.339844 Z M 376.566406 393.671875 C 372.140625 402.480469 363.296875 407.945312 353.476562 407.945312 L 327.527344 407.945312 C 330.386719 403.453125 332.441406 398.441406 333.519531 393.042969 C 335.921875 381.03125 346.578125 372.292969 358.839844 372.292969 L 371.238281 372.292969 L 381.894531 382.984375 Z M 442.839844 292.359375 L 463.804688 313.320312 C 441.515625 333.335938 418.183594 352.171875 393.734375 369.613281 L 390.148438 365.992188 L 386.5625 362.40625 C 403.972656 338.003906 422.816406 314.640625 442.839844 292.359375 Z M 602.554688 131.65625 C 597.402344 131.65625 592.386719 133.46875 588.484375 136.773438 L 515.246094 197.769531 C 460.359375 243.480469 411.671875 296.226562 370.367188 354.46875 L 358.839844 354.46875 C 338.082031 354.46875 320.078125 369.230469 316.035156 389.527344 C 314.433594 397.429688 309.417969 403.976562 302.28125 407.5625 L 299.632812 408.882812 C 295.941406 410.730469 293.992188 414.871094 294.929688 418.910156 C 295.871094 422.914062 299.457031 425.769531 303.601562 425.769531 L 353.476562 425.769531 C 370.085938 425.769531 385.0625 416.542969 392.515625 401.644531 L 399.761719 387.125 C 458.824219 345.558594 512.214844 296.398438 558.429688 240.972656 L 619.445312 167.726562 C 622.753906 163.789062 624.566406 158.777344 624.566406 153.660156 C 624.566406 141.507812 614.710938 131.65625 602.554688 131.65625 " fill-opacity="1" fill-rule="nonzero"/></g><path fill="#ffffff" d="M 178.785156 202.957031 L 160.953125 202.957031 L 160.953125 220.78125 L 178.785156 220.78125 L 178.785156 202.957031 " fill-opacity="1" fill-rule="nonzero"/><path fill="#ffffff" d="M 160.953125 345.558594 L 178.785156 345.558594 L 178.785156 238.605469 L 160.953125 238.605469 L 160.953125 345.558594 " fill-opacity="1" fill-rule="nonzero"/></svg>