<svg xmlns="http://www.w3.org/2000/svg" xmlns:xlink="http://www.w3.org/1999/xlink" width="1000" zoomAndPan="magnify" viewBox="0 0 750 749.999995" height="1000" preserveAspectRatio="xMidYMid meet" version="1.0"><defs><clipPath id="e2e3ab5a11"><path d="M 375 0 C 167.894531 0 0 167.894531 0 375 C 0 582.105469 167.894531 750 375 750 C 582.105469 750 750 582.105469 750 375 C 750 167.894531 582.105469 0 375 0 " clip-rule="nonzero"/></clipPath><clipPath id="57e0dcedd1"><path d="M 128.796875 128.796875 L 586.296875 128.796875 L 586.296875 586.296875 L 128.796875 586.296875 Z M 128.796875 128.796875 " clip-rule="nonzero"/></clipPath></defs><g clip-path="url(#e2e3ab5a11)"><rect x="-75" width="900" fill="#2563eb" y="-74.999999" height="899.999994" fill-opacity="1"/></g><g clip-path="url(#57e0dcedd1)"><path fill="#ffffff" d="M 352.132812 211.765625 C 334.222656 196.695312 311.457031 188.394531 288.027344 188.394531 C 233.09375 188.394531 188.394531 233.089844 188.394531 288.03125 C 188.394531 342.96875 233.09375 387.660156 288.027344 387.660156 C 311.457031 387.660156 334.222656 379.363281 352.132812 364.292969 C 355.910156 361.117188 361.546875 361.601562 364.722656 365.375 C 367.898438 369.152344 367.417969 374.789062 363.636719 377.964844 C 342.511719 395.742188 315.664062 405.53125 288.027344 405.53125 C 223.238281 405.53125 170.523438 352.816406 170.523438 288.03125 C 170.523438 223.238281 223.238281 170.523438 288.027344 170.523438 C 315.664062 170.523438 342.511719 180.316406 363.636719 198.089844 C 367.417969 201.269531 367.898438 206.902344 364.722656 210.683594 C 361.546875 214.457031 355.914062 214.941406 352.132812 211.765625 Z M 565.421875 542.722656 L 542.726562 565.417969 C 538.6875 569.453125 532.128906 569.453125 528.101562 565.417969 L 423.804688 461.128906 C 419.773438 457.09375 419.773438 450.535156 423.804688 446.5 L 446.496094 423.804688 C 448.519531 421.789062 451.164062 420.78125 453.804688 420.78125 C 456.460938 420.78125 459.109375 421.789062 461.128906 423.804688 L 565.421875 528.101562 C 567.363281 530.039062 568.425781 532.632812 568.425781 535.410156 C 568.425781 538.1875 567.363281 540.785156 565.421875 542.722656 Z M 408.828125 391.765625 C 403.554688 397.917969 397.84375 403.617188 391.769531 408.835938 L 413.984375 431.046875 L 431.050781 413.980469 Z M 578.054688 515.464844 L 473.761719 411.164062 C 466.328125 403.738281 455.757812 401.332031 446.285156 403.941406 L 419.773438 377.4375 C 420.085938 376.984375 420.40625 376.535156 420.710938 376.074219 C 423.445312 371.964844 422.328125 366.417969 418.21875 363.6875 C 414.109375 360.957031 408.558594 362.070312 405.824219 366.183594 C 379.507812 405.761719 335.472656 429.386719 288.027344 429.386719 C 210.082031 429.386719 146.667969 365.976562 146.667969 288.027344 C 146.667969 210.082031 210.082031 146.667969 288.027344 146.667969 C 335.472656 146.667969 379.515625 170.296875 405.824219 209.875 C 408.558594 213.984375 414.109375 215.101562 418.21875 212.371094 C 422.328125 209.640625 423.445312 204.089844 420.710938 199.980469 C 391.070312 155.410156 341.472656 128.800781 288.027344 128.800781 C 200.226562 128.800781 128.796875 200.226562 128.796875 288.03125 C 128.796875 375.828125 200.226562 447.257812 288.027344 447.257812 C 320.453125 447.257812 351.453125 437.449219 377.449219 419.789062 L 403.9375 446.28125 C 401.328125 455.757812 403.730469 466.332031 411.167969 473.761719 L 515.464844 578.058594 C 520.960938 583.558594 528.1875 586.308594 535.410156 586.308594 C 542.636719 586.308594 549.855469 583.554688 555.363281 578.058594 L 578.054688 555.359375 C 583.375 550.050781 586.296875 542.964844 586.296875 535.410156 C 586.296875 527.863281 583.375 520.777344 578.054688 515.464844 Z M 309.597656 315.394531 C 309.597656 325.242188 303.503906 333.5625 296.285156 333.5625 L 276.320312 333.5625 C 273.226562 333.5625 270.28125 329.9375 269.621094 325.304688 C 268.914062 320.417969 264.382812 317.035156 259.496094 317.734375 C 254.617188 318.4375 251.21875 322.96875 251.929688 327.851562 C 253.894531 341.519531 264.160156 351.441406 276.320312 351.441406 L 296.285156 351.441406 C 313.476562 351.441406 327.464844 335.265625 327.464844 315.394531 C 327.464844 295.519531 313.476562 279.351562 296.285156 279.351562 L 282.78125 279.351562 C 275.5625 279.351562 269.46875 271.03125 269.46875 261.179688 C 269.46875 251.328125 275.5625 243.003906 282.78125 243.003906 L 302.746094 243.003906 C 305.53125 243.003906 308.257812 245.980469 309.222656 250.082031 C 310.355469 254.882812 315.160156 257.859375 319.972656 256.730469 C 324.78125 255.59375 327.753906 250.785156 326.617188 245.980469 C 323.722656 233.707031 313.902344 225.132812 302.746094 225.132812 L 282.78125 225.132812 C 265.589844 225.132812 251.59375 241.300781 251.59375 261.179688 C 251.59375 281.054688 265.589844 297.222656 282.78125 297.222656 L 296.285156 297.222656 C 303.503906 297.222656 309.597656 305.542969 309.597656 315.394531 Z M 370.761719 243.003906 L 412.257812 243.003906 C 417.191406 243.003906 421.195312 239.003906 421.195312 234.070312 C 421.195312 229.132812 417.191406 225.132812 412.257812 225.132812 L 361.828125 225.132812 C 356.894531 225.132812 352.890625 229.132812 352.890625 234.070312 L 352.890625 342.5 C 352.890625 347.4375 356.894531 351.441406 361.828125 351.441406 L 412.257812 351.441406 C 417.191406 351.441406 421.195312 347.4375 421.195312 342.5 C 421.195312 337.570312 417.191406 333.566406 412.257812 333.566406 L 370.761719 333.566406 L 370.761719 297.222656 L 396.972656 297.222656 C 401.902344 297.222656 405.902344 293.222656 405.902344 288.289062 C 405.902344 283.351562 401.902344 279.351562 396.972656 279.351562 L 370.761719 279.351562 Z M 460.019531 243.640625 C 460.019531 243.03125 460.554688 242.492188 461.167969 242.492188 L 498.988281 242.492188 C 499.601562 242.492188 500.136719 243.03125 500.136719 243.640625 L 500.136719 331.898438 C 500.136719 332.515625 499.601562 333.054688 498.988281 333.054688 L 461.167969 333.054688 C 460.554688 333.054688 460.019531 332.511719 460.019531 331.898438 Z M 461.167969 350.921875 C 450.679688 350.921875 442.148438 342.390625 442.148438 331.898438 L 442.148438 243.640625 C 442.148438 233.15625 450.679688 224.621094 461.167969 224.621094 L 498.988281 224.621094 C 509.476562 224.621094 518.011719 233.15625 518.011719 243.640625 L 518.011719 331.898438 C 518.011719 342.390625 509.480469 350.921875 498.988281 350.921875 Z M 461.167969 350.921875 " fill-opacity="1" fill-rule="evenodd"/></g></svg>