<svg xmlns="http://www.w3.org/2000/svg" xmlns:xlink="http://www.w3.org/1999/xlink" width="500" zoomAndPan="magnify" viewBox="0 0 375 374.999991" height="500" preserveAspectRatio="xMidYMid meet" version="1.0"><defs><clipPath id="7aef03593b"><path d="M 7.265625 0 L 368 0 L 368 375 L 7.265625 375 Z M 7.265625 0 " clip-rule="nonzero"/></clipPath></defs><g clip-path="url(#7aef03593b)"><path fill="#2563eb" d="M 367.1875 260.027344 L 263.566406 2.617188 C 262.546875 0.078125 258.945312 0.078125 257.925781 2.617188 L 220.605469 95.277344 C 220.3125 96 220.308594 96.816406 220.601562 97.542969 L 286.675781 262.285156 C 287.140625 263.4375 288.257812 264.191406 289.496094 264.191406 L 364.367188 264.199219 C 366.519531 264.199219 367.992188 262.023438 367.1875 260.027344 Z M 117.355469 2.617188 L 227.773438 277.429688 C 228.066406 278.15625 228.066406 278.96875 227.769531 279.695312 L 190.4375 372.386719 C 189.414062 374.925781 185.816406 374.925781 184.792969 372.386719 L 117.34375 204.851562 C 116.324219 202.308594 112.726562 202.308594 111.703125 204.84375 L 88.570312 262.273438 C 88.105469 263.421875 86.988281 264.175781 85.746094 264.175781 L 10.875 264.171875 C 8.722656 264.171875 7.25 261.996094 8.054688 259.996094 L 111.710938 2.613281 C 112.738281 0.0742188 116.335938 0.0742188 117.355469 2.617188 " fill-opacity="1" fill-rule="nonzero"/></g></svg>