<svg xmlns="http://www.w3.org/2000/svg" xmlns:xlink="http://www.w3.org/1999/xlink" width="1000" zoomAndPan="magnify" viewBox="0 0 750 749.999995" height="1000" preserveAspectRatio="xMidYMid meet" version="1.0"><defs><clipPath id="3fce7c18e0"><path d="M 375 0 C 167.894531 0 0 167.894531 0 375 C 0 582.105469 167.894531 750 375 750 C 582.105469 750 750 582.105469 750 375 C 750 167.894531 582.105469 0 375 0 " clip-rule="nonzero"/></clipPath></defs><g clip-path="url(#3fce7c18e0)"><rect x="-75" width="900" fill="#2563eb" y="-74.999999" height="899.999994" fill-opacity="1"/></g><path fill="#ffffff" d="M 362.757812 199.117188 L 215.089844 199.117188 C 189.109375 199.117188 178.261719 209.894531 178.261719 235.710938 C 178.261719 275.710938 178.195312 315.714844 178.195312 355.714844 L 203.230469 355.714844 L 203.230469 239.96875 C 203.230469 224.539062 203.394531 224.472656 219.25 224.472656 C 267.085938 224.410156 315.023438 224.410156 362.757812 224.410156 Z M 423.765625 517.71875 C 420.195312 523.976562 413.542969 528.269531 406.238281 527.941406 C 399.03125 527.710938 392.902344 523.617188 389.660156 517.71875 C 388.019531 514.769531 387.105469 511.265625 387.105469 507.5625 C 387.265625 496.621094 396.015625 487.710938 406.730469 487.644531 C 417.804688 487.644531 426.488281 496.949219 426.257812 508.546875 C 426.191406 511.820312 425.242188 515 423.765625 517.71875 Z M 600.433594 199.117188 L 580.445312 199.117188 L 580.445312 224.410156 L 596.109375 224.410156 C 609.507812 224.410156 610.132812 224.933594 610.132812 237.875 C 610.195312 311.226562 610.066406 384.445312 610.359375 457.699219 C 610.425781 467.167969 607.738281 470.738281 597.714844 470.738281 C 501.222656 470.574219 404.632812 470.574219 308.109375 470.574219 L 308.109375 543.761719 C 325.082031 543.761719 342.050781 543.761719 359.058594 543.664062 C 358.894531 546.382812 358.664062 549.105469 358.5 551.824219 C 357.941406 559.816406 357.648438 567.84375 356.566406 575.769531 C 356.238281 578.097656 355.714844 580.257812 354.929688 582.355469 C 352.601562 589.398438 347.949219 595.132812 341.300781 599.328125 C 338.808594 600.867188 336.320312 602.339844 333.863281 603.914062 C 329.503906 606.535156 325.082031 609.089844 320.820312 611.808594 C 318.886719 612.953125 317.019531 614.757812 316.101562 616.691406 C 314.628906 619.867188 316.003906 622.195312 319.574219 622.816406 C 320.753906 622.980469 321.902344 622.816406 323.082031 622.816406 C 379.339844 622.816406 435.628906 622.882812 491.820312 622.816406 C 494.867188 622.816406 498.796875 623.898438 499.683594 619.574219 C 500.4375 615.675781 497.652344 613.511719 494.636719 611.742188 C 490.050781 609.023438 485.496094 606.238281 480.910156 603.519531 C 479.203125 602.4375 477.5 601.421875 475.796875 600.40625 C 468.71875 596.214844 463.839844 590.742188 461.117188 583.832031 C 459.742188 580.488281 458.957031 576.785156 458.660156 572.757812 C 458.039062 563.191406 457.1875 553.59375 456.402344 543.664062 L 600.433594 543.664062 C 624.320312 543.664062 635.261719 532.59375 635.261719 508.480469 L 635.261719 233.550781 C 635.164062 210.617188 623.53125 199.117188 600.433594 199.117188 " fill-opacity="1" fill-rule="nonzero"/><path fill="#ffffff" d="M 538.902344 345.855469 L 405.78125 345.855469 L 405.78125 157.578125 L 538.902344 157.578125 Z M 472.292969 380.515625 C 465.179688 380.351562 459.347656 374.453125 459.347656 367.34375 C 459.347656 360.203125 465.179688 354.304688 472.292969 354.304688 C 479.5 354.304688 485.398438 360.203125 485.398438 367.179688 C 485.398438 374.453125 479.433594 380.515625 472.292969 380.515625 Z M 554.695312 166.585938 C 554.695312 160.851562 554.464844 155.25 554.695312 149.453125 C 555.023438 136.25 544.175781 127.207031 532.21875 127.339844 C 492.539062 127.4375 452.601562 127.339844 412.757812 127.339844 C 399.421875 127.339844 390.675781 136.019531 390.675781 149.289062 L 390.675781 331.765625 C 390.675781 343.136719 390.675781 354.699219 390.609375 366.265625 C 390.445312 380.582031 401.355469 388.96875 413.378906 388.804688 C 453.058594 388.507812 492.769531 388.574219 532.316406 388.738281 C 544.308594 388.804688 554.792969 379.730469 554.695312 366.625 C 554.464844 336.320312 554.5625 305.851562 554.5625 275.484375 C 554.695312 234.335938 554.695312 207.734375 554.695312 166.585938 " fill-opacity="1" fill-rule="nonzero"/><path fill="#ffffff" d="M 267.347656 578.6875 C 267.347656 582.652344 264.171875 585.828125 260.304688 585.828125 L 138.914062 585.828125 C 135.011719 585.828125 131.835938 582.652344 131.835938 578.6875 L 131.835938 409.871094 C 131.835938 405.90625 135.011719 402.726562 138.914062 402.726562 L 260.304688 402.726562 C 264.171875 402.726562 267.347656 405.90625 267.347656 409.871094 Z M 199.59375 616.984375 C 193.5625 616.984375 188.746094 612.101562 188.746094 606.042969 C 188.746094 600.078125 193.5625 595.199219 199.59375 595.199219 C 205.589844 595.199219 210.46875 600.078125 210.46875 606.042969 C 210.46875 612.101562 205.589844 616.984375 199.59375 616.984375 Z M 269.152344 384.511719 L 130.066406 384.511719 C 121.84375 384.511719 115.09375 391.261719 115.09375 399.484375 L 115.09375 607.679688 C 115.09375 615.96875 121.84375 622.652344 130.066406 622.652344 L 269.152344 622.652344 C 277.375 622.652344 284.09375 615.96875 284.09375 607.679688 L 284.09375 399.484375 C 284.09375 391.261719 277.375 384.511719 269.152344 384.511719 " fill-opacity="1" fill-rule="nonzero"/></svg>